<?xml version="1.0" encoding="UTF-8"?><svg xmlns="http://www.w3.org/2000/svg" height="1920px" version="1.1" viewBox="0 0 1080 1920" width="1080px">
 <g id="layer1">
  <g fill="#ffc107" id="change1_2">
   <path d="m745.88 800.71l-22 16.27 44.03 66.04 25.09-18.55-47.12-63.76z" fill="inherit"/>
  </g>
  <g fill="#ffc107" id="change1_1">
   <path d="m712.41 825.45l-23.43 17.32 47.57 63.43 19.89-14.7-44.03-66.05z" fill="inherit"/>
  </g>
  <g fill="#b6b6b6" id="change2_3">
   <path d="m677.53 851.24l-352.28 260.36 47.12 63.8 352.73-260.74-47.57-63.42z" fill="inherit"/>
  </g>
  <g fill="#919191" id="change3_1">
   <path d="m528.77 961.19l-32.6 24.1 52.95 59.41 32.6-24.1-52.95-59.41z" fill="inherit"/>
  </g>
 </g>
 <g id="layer2">
  <g fill="#f44336" id="change4_1">
   <path d="m907.16 943.78c11.58 206.72-146.67 383.82-353.46 395.32-206.79 11.6-383.83-146.6-395.41-353.36-11.59-206.77 146.66-383.78 353.45-395.37s383.83 146.64 395.42 353.41m-50.29 2.81c-10.03-178.99-163.28-315.97-342.31-305.93-179.03 10.03-316.02 163.27-305.99 342.26 10.03 178.98 163.29 315.98 342.31 305.98 179.03-10.1 316.02-163.3 305.99-342.31z" fill="inherit"/>
  </g>
  <g fill="#f44336" id="change4_2">
   <path d="m329.46 700.68l452.81 498.62c9.35 10.3 8.58 26.2-1.72 35.6-10.29 9.3-26.22 8.5-35.57-1.8l-452.8-498.56c-9.35-10.3-8.59-26.23 1.71-35.58 10.29-9.34 26.22-8.58 35.57 1.72z" fill="inherit"/>
  </g>
  <g fill="#cb180b" id="change5_1">
   <path d="m613.62 598.52l-0.25 0.63c-0.07 0.17-0.14 0.35-0.2 0.53l-1.13 3.3c-0.06 0.18-0.12 0.36-0.17 0.55l-0.94 3.35c-0.05 0.18-0.1 0.37-0.14 0.55l-0.76 3.4c-0.04 0.19-0.08 0.38-0.11 0.57l-0.57 3.43c-0.03 0.19-0.06 0.38-0.08 0.57l-0.38 3.46c-0.03 0.19-0.04 0.38-0.05 0.57l-0.2 3.48c-0.01 0.19-0.01 0.38-0.01 0.57l-0.01 3.48c0 0.19 0.01 0.38 0.02 0.58l0.18 3.5c0.01 0.19 0.03 0.38 0.05 0.57l0.38 3.49c0.02 0.19 0.05 0.38 0.08 0.57l0.57 3.46c0.03 0.19 0.06 0.38 0.11 0.57l0.75 3.42c0.05 0.19 0.09 0.38 0.14 0.56l0.95 3.38c0.05 0.19 0.11 0.37 0.17 0.55l0.85 2.5c7.49 1.9 14.87 4.06 22.14 6.48 0.01 0 0.03 0.01 0.04 0.01l3.32-2.03-1.67-2.74-1.39-2.58-1.24-2.65-1.09-2.72-0.95-2.77-0.79-2.82-0.63-2.86-0.48-2.89-0.31-2.91-0.16-2.93 0.01-2.9 0.16-2.91 0.32-2.89 0.48-2.86 0.63-2.84 0.79-2.8 0.94-2.75 1.09-2.7 0.17-0.37c-0.03-0.01-0.06-0.01-0.09-0.02-6.77-1.9-13.62-3.62-20.53-5.14z" fill="inherit"/>
  </g>
  <g fill="#cb180b" id="change5_3">
   <path d="m765.47 670.74l-2.42 3.63-0.12 0.18-2.92 4.58c-0.04 0.07-0.08 0.13-0.12 0.19l-2.83 4.64c-0.03 0.07-0.07 0.13-0.11 0.19l-2.73 4.71c-0.04 0.06-0.07 0.12-0.11 0.18l-2.63 4.76c-0.04 0.07-0.07 0.13-0.11 0.19l-2.5 4.76c-0.03 0.06-0.07 0.13-0.1 0.19l-2.41 4.8c-0.03 0.07-0.06 0.13-0.09 0.2l-2.31 4.85c-0.03 0.06-0.06 0.13-0.09 0.19l-2.21 4.9c-0.03 0.07-0.06 0.13-0.09 0.2l-0.67 1.59c5.71 4.76 11.25 9.72 16.61 14.87l1.35-3.36 2.03-4.75 2.12-4.7 2.21-4.65 2.31-4.62 2.41-4.56 2.53-4.57 2.62-4.51 2.72-4.46 2.81-4.41 1.07-1.61c-5.27-4.68-10.68-9.22-16.21-13.6z" fill="inherit"/>
  </g>
  <g fill="#cb180b" id="change5_2">
   <path d="m388.26 638.91m0 21.04z" fill="inherit"/>
  </g>
 </g>
 <g fill="#b6b6b6" id="layer3">
  <g id="change2_1">
   <path d="m672.85 533.19l-0.42 0.02q-57.33 58.97-52.1 98.04-1.41 16.73 24.45 58.66 43.01 48.76 42.07 49.23 4.8 6.4 8.77 17.43 5.54 25.56-13.82 54.33 0.26 6.51 6.19 6.79 32.77-32.94 24.6-69.1-0.87-18.28-63.03-94.95-9.38-15.83-9.8-26.82-1.78-33.91 38.82-85.56 1.62-6.54-5.73-8.07z" fill="inherit"/>
  </g>
  <g id="change2_2">
   <path d="m744.6 585.6l0.31-0.04q48.48 36.74 48.99 65.89 2.9 12.08-11.34 45.61-26.03 40.43-25.29 40.66-2.8 5.21-4.48 13.72-1.2 19.3 16.14 38.18 0.54 4.8-3.76 5.66-27.63-20.44-25.67-47.79-1.4-13.45 35.52-76.42 5.1-12.62 4.19-20.7-2.47-24.99-37.9-58.24-1.9-4.6 3.29-6.53z" fill="inherit"/>
  </g>
 </g>
</svg>