<?xml version="1.0" encoding="UTF-8"?><svg xmlns="http://www.w3.org/2000/svg" height="482.72pt" version="1.1" viewBox="0 0 436.59 482.72" width="436.59pt">
 <g id="surface1">
  <g><path d="m132.29 0.0039062c24.31 0 44.02 14.297 44.02 31.934 0 17.636-19.71 31.933-44.02 31.933-24.3 0-44.009-14.297-44.009-31.933 0-17.637 19.709-31.934 44.009-31.934" fill="#341f17"/></g>
  <g><path d="m175.02 39.645c0.84-2.469 1.29-5.051 1.29-7.707 0-17.637-19.71-31.934-44.02-31.934l0.01-0.0000938c24.3 0 44.01 14.297 44.01 31.934 0 2.656-0.45 5.238-1.29 7.707" fill="#a3a1a0"/></g>
  <g><path d="m175.02 39.645c-13.39-6.903-28.58-10.801-44.68-10.801-14.75 0-28.74 3.273-41.274 9.125-0.511-1.953-0.781-3.969-0.781-6.031 0-17.637 19.705-31.934 44.015-31.934 24.3-0.0000938 44.01 14.297 44.01 31.934 0 2.656-0.45 5.238-1.29 7.707" fill="#2c1e18"/></g>
  <g><path d="m130.34 28.844c53.92 0 97.63 43.715 97.63 97.636 0 53.92-43.71 97.63-97.63 97.63-53.926 0-97.637-43.71-97.637-97.63 0-53.921 43.711-97.636 97.637-97.636" fill="#341f17"/></g>
  <g><path d="m15.832 416.85l9.418-100.78c0-18.17 14.734-32.91 32.91-32.91l72.18-16.45 80.29 16.45c18.18 0 25.54 17.07 32.91 32.91l31.21 64.14 34.07-30.5 27.97 30.13s-38.73 65.61-59.17 76.37-51.64-44.1-51.64-44.1l-12.44 53.78h-192.76l-4.948-49.04" fill="#5d84bc"/></g>
  <g><path d="m160.64 296.18c0 16.73-13.56 30.3-30.3 30.3s-30.32-13.57-30.32-30.3v-31.18c0-16.74 13.58-30.31 30.32-30.31 16.73 0 30.3 13.57 30.3 30.31v31.18" fill="#c0935b"/></g>
  <g><path d="m210.88 189.16c0 44.48-44.75 80.54-80.54 80.54-29.83 0-80.543-36.06-80.543-80.54v-46.23c0-44.485 36.058-48.164 80.543-48.164 44.47 0 80.54 3.679 80.54 48.164v46.23" fill="#c0935b"/></g>
  <g><path d="m102.93 222.13c4.86 4.93 11.3 8.49 17.8 10.68 14.12 4.75 27.88-0.87 38.26-10.68 2.35-2.22-1.19-5.74-3.54-3.53-9.7 9.17-21.48 13.4-34.42 9.04-5.28-1.78-10.62-5.05-14.56-9.04-2.27-2.3-5.81 1.24-3.54 3.53" fill="#242323"/></g>
  <g><path d="m213.64 465.89h-0.1l12.44-53.78s0.02 0.04 0.07 0.12l-12.41 53.66m58.59-8.28c1.85-0.05 3.66-0.49 5.39-1.4 20.44-10.76 59.17-76.37 59.17-76.37l-27.93-30.08 0.05-0.05 27.97 30.13s-38.73 65.61-59.17 76.37c-1.75 0.93-3.59 1.37-5.48 1.4m2.52-77.4l-31.21-64.14c-7.37-15.84-14.73-32.91-32.91-32.91l-49.99-10.24v-7.92c0-0.94-0.03-1.87-0.12-2.78 26.68-12.81 50.36-40.71 50.36-73.06v-7.47c0.03-0.05 0.06-0.1 0.09-0.14v7.61c0 32.35-23.67 60.25-50.36 73.05 0.09 0.92 0.14 1.85 0.14 2.79v7.92l49.98 10.24c18.18 0 25.54 17.07 32.91 32.91l31.18 64.08-0.07 0.06" fill="#e7e7e6"/></g>
  <g><path d="m210.88 181.69v-38.76c0-43.024-33.73-47.879-76.18-48.153 42.5 0.27 76.27 5.098 76.27 48.153v38.62c-0.03 0.04-0.06 0.09-0.09 0.14" fill="#2f1c15"/></g>
  <g><path d="m213.54 465.89h-82.38v-139.41c16.36-0.44 29.48-13.84 29.48-30.3v-23.26l49.99 10.24c18.18 0 25.54 17.07 32.91 32.91l31.21 64.14 0.07-0.06 0.03 0.06 34.01-30.45 27.93 30.08s-38.73 65.61-59.17 76.37c-1.73 0.91-3.54 1.35-5.39 1.4h-0.22c-20.06 0-45.93-45.5-45.93-45.5l-0.03 0.12c-0.05-0.08-0.07-0.12-0.07-0.12l-12.44 53.78" fill="#5276a9"/></g>
  <g><path d="m131.16 326.48v-56.79c9.52-0.15 19.64-2.81 29.36-7.47 0.09 0.91 0.12 1.84 0.12 2.78v31.18c0 16.46-13.12 29.86-29.48 30.3" fill="#ab8352"/></g>
  <g><path d="m131.16 269.69v-35.16c10.33-0.03 20.04-5.03 27.83-12.4 1.82-1.72 0.1-4.23-1.87-4.23-0.56 0-1.14 0.21-1.67 0.7-7.09 6.7-15.29 10.76-24.25 10.76h-0.04v-134.59c1.19 0 2.37 0.003 3.54 0.007 42.45 0.274 76.18 5.129 76.18 48.153v46.23c0 32.35-23.68 60.25-50.36 73.06-9.72 4.66-19.84 7.32-29.36 7.47" fill="#ab8352"/></g>
  <g><path d="m131.16 234.53v-5.17h0.04c8.96 0 17.16-4.06 24.25-10.76 0.53-0.49 1.11-0.7 1.67-0.7 1.97 0 3.69 2.51 1.87 4.23-7.79 7.37-17.5 12.37-27.83 12.4" fill="#22201f"/></g>
  <g><path d="m176.14 191.28c-15.3 3.94-29.87-1.32-32.55-11.73-2.68-10.42 7.55-22.05 22.84-25.99 15.3-3.94 29.88 1.32 32.56 11.73 2.68 10.42-7.55 22.05-22.85 25.99zm-60.03-11.73c-2.68 10.41-17.255 15.67-32.551 11.73-15.297-3.94-25.528-15.57-22.844-25.99 2.68-10.41 17.254-15.67 32.555-11.73 15.29 3.94 25.52 15.57 22.84 25.99zm24.8-19.09c-11.53 3.52-19.4 1.62-23.12 0.12-0.83-0.42-1.65-0.82-2.45-1.21l-0.03-0.02v0.01c-56.404-27.48-70.38-2.47-70.38-2.47 3.254 36.16 42.3 40.15 42.3 40.15s29.59 7.03 41.25-26.94c0.52 0 1.03 0.03 1.53 0.08 11.69 33.89 41.22 26.86 41.22 26.86s39.06-3.99 42.31-40.15c0 0-14.34-25.68-72.63 3.57" fill="#373637"/></g>
  <g><path d="m15.141 320.43l122.74-18.23 24.1 162.29-122.74 18.23-24.099-162.29" fill="#373637"/></g>
  <g><path d="m5.2578 420.32l60.043-40.76 24.246 40.34-53.238 56.66s-45.028 7.39-31.051-56.24" fill="#5d84bc"/></g>
  <g><path d="m6.5195 422.48c20.016-13.59 40.028-27.17 60.042-40.76-1.14-0.3-2.281-0.6-3.421-0.9 8.082 13.45 16.164 26.89 24.246 40.34 0.133-1.01 0.261-2.02 0.39-3.03-16.73 17.81-33.461 35.61-50.191 53.42-0.918 0.98-1.84 1.96-2.762 2.94-0.512 0.55 1.934-0.46 0.563-0.32-2.703 0.28-5.489 0.21-8.172-0.21-11.305-1.74-18.535-9.67-21.074-20.64-2.4418-10.52-0.6918-21.94 1.527-32.33 0.6718-3.15-4.1485-4.48-4.8203-1.33-3.4141 15.98-5.7657 35.59 5.1953 49.31 5.613 7.02 14.738 10.14 23.48 10.35 1.817 0.04 3.653-0.06 5.45-0.35 2.234-0.36 5.105-4.9 6.465-6.35 10.316-10.98 20.632-21.96 30.953-32.94 5.64-6 11.281-12.01 16.921-18.01 0.766-0.82 0.985-2.05 0.391-3.03-8.082-13.45-16.164-26.89-24.246-40.34-0.664-1.1-2.281-1.67-3.418-0.89-20.016 13.58-40.031 27.17-60.043 40.76-2.6522 1.79-0.1522 6.13 2.5235 4.31" fill="#5d84bc"/></g>
  <g><path d="m334.69 383.32s25.75-40.06 27.37-40.06 35.89-13.51 35.89-13.51 18.29 2.15 18.29-19.36c0-21.52-4.15-35.98-4.15-35.98-3.23-8.6-12.91-4.71-12.91-4.71v-13.58s-45.18 19.37-51.1 19.37-6.99 44.1-6.99 44.1l-29.06 33.59" fill="#c0935b"/></g>
  <g><path d="m66.711 393.04l29.824-24.49 60.075-7.79s39.23 37.84 0 63.44c-40.26 0-60.813-8.9-60.813-8.9l-13.512 8.9s-16.699-4.45-15.574-31.16" fill="#c0935b"/></g>
  <g><path d="m426.62 163.36c-12.65 34.87-25.3 69.75-37.96 104.62-2.2 6.08 7.46 8.68 9.65 2.66 12.65-34.87 25.31-69.75 37.96-104.62 2.2-6.08-7.46-8.67-9.65-2.66" fill="#373637"/></g>
 </g>
</svg>